<mxfile host="app.diagrams.net" agent="Mozilla/5.0 (Windows NT 10.0; Win64; x64) AppleWebKit/537.36 (KHTML, like Gecko) Chrome/139.0.0.0 Safari/537.36" version="28.1.1">
  <diagram name="Página-1" id="fbAMJWuwcNffhX7fD1s_">
    <mxGraphModel dx="1158" dy="662" grid="1" gridSize="10" guides="1" tooltips="1" connect="1" arrows="1" fold="1" page="1" pageScale="1" pageWidth="827" pageHeight="1169" math="0" shadow="0">
      <root>
        <mxCell id="0" />
        <mxCell id="1" parent="0" />
        <mxCell id="LINFXKRJJMU7odbiyd8P-1" value="Sistema de optimizacion de ultima milla con big data" style="whiteSpace=wrap;html=1;aspect=fixed;" vertex="1" parent="1">
          <mxGeometry x="360" y="380" width="90" height="90" as="geometry" />
        </mxCell>
        <mxCell id="LINFXKRJJMU7odbiyd8P-2" value="Cliente" style="ellipse;whiteSpace=wrap;html=1;" vertex="1" parent="1">
          <mxGeometry x="355" y="130" width="100" height="60" as="geometry" />
        </mxCell>
        <mxCell id="LINFXKRJJMU7odbiyd8P-3" value="Bodega/stock" style="ellipse;whiteSpace=wrap;html=1;" vertex="1" parent="1">
          <mxGeometry x="50" y="350" width="100" height="60" as="geometry" />
        </mxCell>
        <mxCell id="LINFXKRJJMU7odbiyd8P-4" value="Planificación logística" style="ellipse;whiteSpace=wrap;html=1;" vertex="1" parent="1">
          <mxGeometry x="150" y="660" width="95" height="70" as="geometry" />
        </mxCell>
        <mxCell id="LINFXKRJJMU7odbiyd8P-5" value="Conductores" style="ellipse;whiteSpace=wrap;html=1;" vertex="1" parent="1">
          <mxGeometry x="590" y="660" width="100" height="60" as="geometry" />
        </mxCell>
        <mxCell id="LINFXKRJJMU7odbiyd8P-6" value="ERP/CRM" style="ellipse;whiteSpace=wrap;html=1;" vertex="1" parent="1">
          <mxGeometry x="700" y="360" width="100" height="55" as="geometry" />
        </mxCell>
        <mxCell id="LINFXKRJJMU7odbiyd8P-8" value="" style="endArrow=classic;html=1;rounded=0;entryX=0.111;entryY=-0.016;entryDx=0;entryDy=0;exitX=0;exitY=1;exitDx=0;exitDy=0;entryPerimeter=0;" edge="1" parent="1" source="LINFXKRJJMU7odbiyd8P-2" target="LINFXKRJJMU7odbiyd8P-1">
          <mxGeometry width="50" height="50" relative="1" as="geometry">
            <mxPoint x="390" y="340" as="sourcePoint" />
            <mxPoint x="440" y="290" as="targetPoint" />
          </mxGeometry>
        </mxCell>
        <mxCell id="LINFXKRJJMU7odbiyd8P-9" value="" style="endArrow=classic;html=1;rounded=0;entryX=0.75;entryY=0.917;entryDx=0;entryDy=0;entryPerimeter=0;exitX=0.75;exitY=0;exitDx=0;exitDy=0;" edge="1" parent="1" source="LINFXKRJJMU7odbiyd8P-1" target="LINFXKRJJMU7odbiyd8P-2">
          <mxGeometry width="50" height="50" relative="1" as="geometry">
            <mxPoint x="390" y="340" as="sourcePoint" />
            <mxPoint x="440" y="290" as="targetPoint" />
          </mxGeometry>
        </mxCell>
        <mxCell id="LINFXKRJJMU7odbiyd8P-10" value="Consulta/Pedido" style="text;html=1;align=center;verticalAlign=middle;whiteSpace=wrap;rounded=0;fillColor=#f5f5f5;fontColor=#333333;strokeColor=#666666;" vertex="1" parent="1">
          <mxGeometry x="310" y="270" width="96" height="30" as="geometry" />
        </mxCell>
        <mxCell id="LINFXKRJJMU7odbiyd8P-12" value="Notificacion" style="text;html=1;align=center;verticalAlign=middle;whiteSpace=wrap;rounded=0;fillColor=#f5f5f5;fontColor=#333333;strokeColor=#666666;" vertex="1" parent="1">
          <mxGeometry x="414" y="270" width="60" height="30" as="geometry" />
        </mxCell>
        <mxCell id="LINFXKRJJMU7odbiyd8P-13" value="" style="endArrow=classic;html=1;rounded=0;exitX=1;exitY=0.5;exitDx=0;exitDy=0;entryX=0;entryY=0;entryDx=0;entryDy=0;" edge="1" parent="1" source="LINFXKRJJMU7odbiyd8P-3" target="LINFXKRJJMU7odbiyd8P-1">
          <mxGeometry width="50" height="50" relative="1" as="geometry">
            <mxPoint x="420" y="430" as="sourcePoint" />
            <mxPoint x="470" y="380" as="targetPoint" />
          </mxGeometry>
        </mxCell>
        <mxCell id="LINFXKRJJMU7odbiyd8P-15" value="" style="endArrow=classic;html=1;rounded=0;entryX=0.5;entryY=1;entryDx=0;entryDy=0;exitX=0;exitY=1;exitDx=0;exitDy=0;" edge="1" parent="1" source="LINFXKRJJMU7odbiyd8P-1" target="LINFXKRJJMU7odbiyd8P-3">
          <mxGeometry width="50" height="50" relative="1" as="geometry">
            <mxPoint x="410" y="520" as="sourcePoint" />
            <mxPoint x="460" y="470" as="targetPoint" />
          </mxGeometry>
        </mxCell>
        <mxCell id="LINFXKRJJMU7odbiyd8P-17" value="Actualización&lt;div&gt;Inventario&lt;/div&gt;" style="text;html=1;align=center;verticalAlign=middle;whiteSpace=wrap;rounded=0;fillColor=#f5f5f5;fontColor=#333333;strokeColor=#666666;" vertex="1" parent="1">
          <mxGeometry x="220" y="360" width="60" height="30" as="geometry" />
        </mxCell>
        <mxCell id="LINFXKRJJMU7odbiyd8P-19" value="Solicitudes&lt;div&gt;disponibilidad&lt;/div&gt;" style="text;html=1;align=center;verticalAlign=middle;whiteSpace=wrap;rounded=0;fillColor=#f5f5f5;fontColor=#333333;strokeColor=#666666;rotation=10;" vertex="1" parent="1">
          <mxGeometry x="230" y="430" width="80" height="30" as="geometry" />
        </mxCell>
        <mxCell id="LINFXKRJJMU7odbiyd8P-20" value="" style="endArrow=classic;html=1;rounded=0;exitX=0.5;exitY=0;exitDx=0;exitDy=0;entryX=0;entryY=1;entryDx=0;entryDy=0;" edge="1" parent="1" source="LINFXKRJJMU7odbiyd8P-4" target="LINFXKRJJMU7odbiyd8P-1">
          <mxGeometry width="50" height="50" relative="1" as="geometry">
            <mxPoint x="440" y="510" as="sourcePoint" />
            <mxPoint x="490" y="460" as="targetPoint" />
          </mxGeometry>
        </mxCell>
        <mxCell id="LINFXKRJJMU7odbiyd8P-21" value="" style="endArrow=classic;html=1;rounded=0;entryX=0.989;entryY=0.357;entryDx=0;entryDy=0;entryPerimeter=0;exitX=0.5;exitY=1;exitDx=0;exitDy=0;" edge="1" parent="1" source="LINFXKRJJMU7odbiyd8P-1" target="LINFXKRJJMU7odbiyd8P-4">
          <mxGeometry width="50" height="50" relative="1" as="geometry">
            <mxPoint x="440" y="510" as="sourcePoint" />
            <mxPoint x="490" y="460" as="targetPoint" />
          </mxGeometry>
        </mxCell>
        <mxCell id="LINFXKRJJMU7odbiyd8P-22" value="Restricciones" style="text;html=1;align=center;verticalAlign=middle;whiteSpace=wrap;rounded=0;fillColor=#f5f5f5;fontColor=#333333;strokeColor=#666666;" vertex="1" parent="1">
          <mxGeometry x="245" y="520" width="80" height="30" as="geometry" />
        </mxCell>
        <mxCell id="LINFXKRJJMU7odbiyd8P-23" value="Planificacion" style="text;html=1;align=center;verticalAlign=middle;whiteSpace=wrap;rounded=0;fillColor=#f5f5f5;fontColor=#333333;strokeColor=#666666;" vertex="1" parent="1">
          <mxGeometry x="285" y="580" width="70" height="30" as="geometry" />
        </mxCell>
        <mxCell id="LINFXKRJJMU7odbiyd8P-24" value="" style="endArrow=classic;html=1;rounded=0;entryX=0.75;entryY=1;entryDx=0;entryDy=0;exitX=0;exitY=0.5;exitDx=0;exitDy=0;" edge="1" parent="1" source="LINFXKRJJMU7odbiyd8P-5" target="LINFXKRJJMU7odbiyd8P-1">
          <mxGeometry width="50" height="50" relative="1" as="geometry">
            <mxPoint x="440" y="510" as="sourcePoint" />
            <mxPoint x="490" y="460" as="targetPoint" />
          </mxGeometry>
        </mxCell>
        <mxCell id="LINFXKRJJMU7odbiyd8P-25" value="" style="endArrow=classic;html=1;rounded=0;exitX=1;exitY=1;exitDx=0;exitDy=0;entryX=0.637;entryY=-0.036;entryDx=0;entryDy=0;entryPerimeter=0;" edge="1" parent="1" source="LINFXKRJJMU7odbiyd8P-1" target="LINFXKRJJMU7odbiyd8P-5">
          <mxGeometry width="50" height="50" relative="1" as="geometry">
            <mxPoint x="440" y="510" as="sourcePoint" />
            <mxPoint x="490" y="460" as="targetPoint" />
          </mxGeometry>
        </mxCell>
        <mxCell id="LINFXKRJJMU7odbiyd8P-26" value="GPS tiempo real" style="text;html=1;align=center;verticalAlign=middle;whiteSpace=wrap;rounded=0;fillColor=#f5f5f5;fontColor=#333333;strokeColor=#666666;" vertex="1" parent="1">
          <mxGeometry x="510" y="620" width="70" height="40" as="geometry" />
        </mxCell>
        <mxCell id="LINFXKRJJMU7odbiyd8P-27" value="Rutas optimizadas" style="text;html=1;align=center;verticalAlign=middle;whiteSpace=wrap;rounded=0;fillColor=#f5f5f5;fontColor=#333333;strokeColor=#666666;" vertex="1" parent="1">
          <mxGeometry x="520" y="530" width="70" height="30" as="geometry" />
        </mxCell>
        <mxCell id="LINFXKRJJMU7odbiyd8P-28" value="" style="endArrow=classic;html=1;rounded=0;entryX=0.99;entryY=0.103;entryDx=0;entryDy=0;entryPerimeter=0;" edge="1" parent="1" source="LINFXKRJJMU7odbiyd8P-6" target="LINFXKRJJMU7odbiyd8P-1">
          <mxGeometry width="50" height="50" relative="1" as="geometry">
            <mxPoint x="440" y="510" as="sourcePoint" />
            <mxPoint x="490" y="460" as="targetPoint" />
          </mxGeometry>
        </mxCell>
        <mxCell id="LINFXKRJJMU7odbiyd8P-29" value="" style="endArrow=classic;html=1;rounded=0;exitX=1;exitY=1;exitDx=0;exitDy=0;entryX=0;entryY=1;entryDx=0;entryDy=0;" edge="1" parent="1" source="LINFXKRJJMU7odbiyd8P-1" target="LINFXKRJJMU7odbiyd8P-6">
          <mxGeometry width="50" height="50" relative="1" as="geometry">
            <mxPoint x="440" y="510" as="sourcePoint" />
            <mxPoint x="490" y="460" as="targetPoint" />
          </mxGeometry>
        </mxCell>
        <mxCell id="LINFXKRJJMU7odbiyd8P-30" value="Datos clientes" style="text;html=1;align=center;verticalAlign=middle;whiteSpace=wrap;rounded=0;fillColor=#f5f5f5;fontColor=#333333;strokeColor=#666666;" vertex="1" parent="1">
          <mxGeometry x="590" y="372.5" width="60" height="30" as="geometry" />
        </mxCell>
        <mxCell id="LINFXKRJJMU7odbiyd8P-31" value="Estado pedidos" style="text;html=1;align=center;verticalAlign=middle;whiteSpace=wrap;rounded=0;fillColor=#f5f5f5;fontColor=#333333;strokeColor=#666666;" vertex="1" parent="1">
          <mxGeometry x="540" y="430" width="60" height="30" as="geometry" />
        </mxCell>
      </root>
    </mxGraphModel>
  </diagram>
</mxfile>
